<svg xmlns="http://www.w3.org/2000/svg" xmlns:xlink="http://www.w3.org/1999/xlink" xmlns:lucid="lucid" width="1760" height="1360"><g transform="translate(0 0)" lucid:page-tab-id="0_0"><path d="M341.23 506.5c0-4.15 3.36-7.5 7.5-7.5h225c4.14 0 7.5 3.35 7.5 7.5v45c0 4.14-3.36 7.5-7.5 7.5h-225c-4.14 0-7.5-3.36-7.5-7.5z" fill="none"/><use xlink:href="#a" transform="matrix(1,0,0,1,341.2311557788943,498.9949748743717) translate(108.18518518518519 35.333333333333336)"/><path d="M861.5 371.87v119" fill="none"/><path d="M861.5 371.87v4.96m0 4.96v9.9m0 4.96v9.92m0 4.96v9.9m0 4.97v9.93m0 4.96v9.9m0 4.96v9.92m0 4.96v9.9m0 4.97v4.97M861.5 371.88v-.5M861.5 490.86v.5" stroke="#999" fill="none"/><path d="M580 146.5c0-4.14 3.36-7.5 7.5-7.5H1035c4.14 0 7.5 3.36 7.5 7.5v342c0 4.14-3.36 7.5-7.5 7.5H587.5c-4.14 0-7.5-3.36-7.5-7.5z" fill="#fff"/><path d="M580 220h462.5v42H580zM580 301h462.5v39H580zM580 379h462.5v39H580zM580 457h462.5v39H580z" fill="#e6e6e6"/><path d="M580 139h462.5v42H580z" fill="#ccc"/><path d="M580 146.5c0-4.14 3.36-7.5 7.5-7.5H1035c4.14 0 7.5 3.36 7.5 7.5v342c0 4.14-3.36 7.5-7.5 7.5H587.5c-4.14 0-7.5-3.36-7.5-7.5zM580 181h462.5M811.25 181v315" stroke="#666" fill="none"/><use xlink:href="#b" transform="matrix(1,0,0,1,590,139.00000000000006) translate(14 30.226666666666667)"/><use xlink:href="#c" transform="matrix(1,0,0,1,590,139.00000000000006) translate(63.47555555555556 30.226666666666667)"/><use xlink:href="#d" transform="matrix(1,0,0,1,585,183.50000000000006) translate(0 21.88888888888889)"/><use xlink:href="#e" transform="matrix(1,0,0,1,585,183.50000000000006) translate(40.74074074074075 21.88888888888889)"/><use xlink:href="#f" transform="matrix(1,0,0,1,585,183.50000000000006) translate(66.47530864197532 21.88888888888889)"/><use xlink:href="#g" transform="matrix(1,0,0,1,816.25,183.50000000000006) translate(0 21.88888888888889)"/><use xlink:href="#h" transform="matrix(1,0,0,1,816.25,183.50000000000006) translate(6.790123456790124 21.88888888888889)"/><use xlink:href="#i" transform="matrix(1,0,0,1,585,222.50000000000006) translate(14 27.726666666666667)"/><use xlink:href="#j" transform="matrix(1,0,0,1,585,222.50000000000006) translate(84.98666666666666 27.726666666666667)"/><use xlink:href="#k" transform="matrix(1,0,0,1,816.25,222.50000000000006) translate(14 27.726666666666667)"/><use xlink:href="#l" transform="matrix(1,0,0,1,585,264.50000000000006) translate(0 21.88888888888889)"/><use xlink:href="#m" transform="matrix(1,0,0,1,585,264.50000000000006) translate(20.370370370370374 21.88888888888889)"/><use xlink:href="#n" transform="matrix(1,0,0,1,585,264.50000000000006) translate(180.41358024691365 21.88888888888889)"/><use xlink:href="#o" transform="matrix(1,0,0,1,816.25,264.50000000000006) translate(0 21.88888888888889)"/><use xlink:href="#l" transform="matrix(1,0,0,1,585,303.50000000000006) translate(0 21.88888888888889)"/><use xlink:href="#p" transform="matrix(1,0,0,1,585,303.50000000000006) translate(20.370370370370374 21.88888888888889)"/><use xlink:href="#o" transform="matrix(1,0,0,1,816.25,303.50000000000006) translate(0 21.88888888888889)"/><use xlink:href="#l" transform="matrix(1,0,0,1,585,342.50000000000006) translate(0 21.88888888888889)"/><use xlink:href="#q" transform="matrix(1,0,0,1,585,342.50000000000006) translate(20.370370370370374 21.88888888888889)"/><use xlink:href="#o" transform="matrix(1,0,0,1,816.25,342.50000000000006) translate(0 21.88888888888889)"/><use xlink:href="#l" transform="matrix(1,0,0,1,585,381.50000000000006) translate(0 21.88888888888889)"/><use xlink:href="#r" transform="matrix(1,0,0,1,585,381.50000000000006) translate(20.370370370370374 21.88888888888889)"/><use xlink:href="#o" transform="matrix(1,0,0,1,816.25,381.50000000000006) translate(0 21.88888888888889)"/><use xlink:href="#l" transform="matrix(1,0,0,1,585,420.50000000000006) translate(0 21.88888888888889)"/><use xlink:href="#s" transform="matrix(1,0,0,1,585,420.50000000000006) translate(20.370370370370374 21.88888888888889)"/><use xlink:href="#t" transform="matrix(1,0,0,1,816.25,420.50000000000006) translate(0 21.88888888888889)"/><use xlink:href="#u" transform="matrix(1,0,0,1,585,459.50000000000006) translate(0 21.88888888888889)"/><use xlink:href="#v" transform="matrix(1,0,0,1,585,459.50000000000006) translate(27.160493827160497 21.88888888888889)"/><use xlink:href="#w" transform="matrix(1,0,0,1,816.25,459.50000000000006) translate(0 21.88888888888889)"/><path d="M61.23 70c0-4.42 3.58-8 8-8h264c4.42 0 8 3.58 8 8v548c0 4.42-3.58 8-8 8h-264c-4.42 0-8-3.58-8-8z" fill="#fff"/><path d="M61.23 62h280v42h-280z" fill="#ccc"/><path d="M61.23 70c0-4.42 3.58-8 8-8h264c4.42 0 8 3.58 8 8v548c0 4.42-3.58 8-8 8h-264c-4.42 0-8-3.58-8-8zM61.23 104h280M201.23 104v522" stroke="#666" fill="none"/><use xlink:href="#x" transform="matrix(1,0,0,1,71.23115577889428,61.99999999999995) translate(106.07555555555555 25.200000000000003)"/><use xlink:href="#y" transform="matrix(1,0,0,1,71.23115577889428,61.99999999999995) translate(112.25999999999999 25.200000000000003)"/><use xlink:href="#z" transform="matrix(1,0,0,1,66.23115577889428,106.49999999999994) translate(33.97444444444444 25.200000000000003)"/><use xlink:href="#A" transform="matrix(1,0,0,1,66.23115577889428,106.49999999999994) translate(60.203333333333326 25.200000000000003)"/><use xlink:href="#B" transform="matrix(1,0,0,1,206.23115577889428,106.49999999999994) translate(29.14666666666666 25.200000000000003)"/><use xlink:href="#C" transform="matrix(1,0,0,1,66.23115577889428,148.49999999999994) translate(44.57111111111111 25.200000000000003)"/><use xlink:href="#B" transform="matrix(1,0,0,1,206.23115577889428,148.49999999999994) translate(29.14666666666666 25.200000000000003)"/><use xlink:href="#D" transform="matrix(1,0,0,1,66.23115577889428,190.49999999999994) translate(37.36 25.200000000000003)"/><use xlink:href="#k" transform="matrix(1,0,0,1,206.23115577889428,190.49999999999994) translate(46.025555555555556 25.200000000000003)"/><use xlink:href="#E" transform="matrix(1,0,0,1,66.23115577889428,232.49999999999994) translate(24.259259259259252 19.555555555555557)"/><use xlink:href="#F" transform="matrix(1,0,0,1,66.23115577889428,232.49999999999994) translate(37.8395061728395 19.555555555555557)"/><use xlink:href="#l" transform="matrix(1,0,0,1,206.23115577889428,232.49999999999994) translate(35.123456790123456 19.555555555555557)"/><use xlink:href="#h" transform="matrix(1,0,0,1,206.23115577889428,232.49999999999994) translate(55.49382716049383 19.555555555555557)"/><use xlink:href="#l" transform="matrix(1,0,0,1,66.23115577889428,271.49999999999994) translate(2.666666666666657 19.555555555555557)"/><use xlink:href="#G" transform="matrix(1,0,0,1,66.23115577889428,271.49999999999994) translate(23.03703703703703 19.555555555555557)"/><use xlink:href="#l" transform="matrix(1,0,0,1,206.23115577889428,271.49999999999994) translate(35.123456790123456 19.555555555555557)"/><use xlink:href="#h" transform="matrix(1,0,0,1,206.23115577889428,271.49999999999994) translate(55.49382716049383 19.555555555555557)"/><use xlink:href="#l" transform="matrix(1,0,0,1,66.23115577889428,310.49999999999994) translate(3.3117283950617207 19.555555555555557)"/><use xlink:href="#H" transform="matrix(1,0,0,1,66.23115577889428,310.49999999999994) translate(23.682098765432094 19.555555555555557)"/><use xlink:href="#u" transform="matrix(1,0,0,1,206.23115577889428,310.49999999999994) translate(31.728395061728392 19.555555555555557)"/><use xlink:href="#h" transform="matrix(1,0,0,1,206.23115577889428,310.49999999999994) translate(58.888888888888886 19.555555555555557)"/><use xlink:href="#I" transform="matrix(1,0,0,1,66.23115577889428,349.49999999999994) translate(30.002222222222215 25.200000000000003)"/><use xlink:href="#k" transform="matrix(1,0,0,1,206.23115577889428,349.49999999999994) translate(46.025555555555556 25.200000000000003)"/><use xlink:href="#J" transform="matrix(1,0,0,1,66.23115577889428,391.49999999999994) translate(35.17222222222222 25.200000000000003)"/><use xlink:href="#B" transform="matrix(1,0,0,1,206.23115577889428,391.49999999999994) translate(29.14666666666666 25.200000000000003)"/><use xlink:href="#l" transform="matrix(1,0,0,1,66.23115577889428,433.49999999999994) translate(3.9907407407407334 19.555555555555557)"/><use xlink:href="#s" transform="matrix(1,0,0,1,66.23115577889428,433.49999999999994) translate(24.361111111111107 19.555555555555557)"/><use xlink:href="#t" transform="matrix(1,0,0,1,206.23115577889428,433.49999999999994) translate(21.57716049382715 19.555555555555557)"/><use xlink:href="#K" transform="matrix(1,0,0,1,66.23115577889428,472.49999999999994) translate(8.743827160493815 19.555555555555557)"/><use xlink:href="#o" transform="matrix(1,0,0,1,206.23115577889428,472.49999999999994) translate(45.30864197530864 19.555555555555557)"/><use xlink:href="#L" transform="matrix(1,0,0,1,66.23115577889428,511.49999999999994) translate(14.820987654320973 19.555555555555557)"/><use xlink:href="#o" transform="matrix(1,0,0,1,206.23115577889428,511.49999999999994) translate(45.30864197530864 19.555555555555557)"/><use xlink:href="#M" transform="matrix(1,0,0,1,66.23115577889428,550.5) translate(44.629629629629626 19.555555555555557)"/><use xlink:href="#o" transform="matrix(1,0,0,1,206.23115577889428,550.5) translate(45.30864197530864 19.555555555555557)"/><use xlink:href="#N" transform="matrix(1,0,0,1,66.23115577889428,589.5) translate(0 21.88888888888889)"/><use xlink:href="#O" transform="matrix(1,0,0,1,66.23115577889428,589.5) translate(10 21.88888888888889)"/><use xlink:href="#P" transform="matrix(1,0,0,1,206.23115577889428,589.5) translate(0 21.88888888888889)"/><use xlink:href="#Q" transform="matrix(1,0,0,1,206.23115577889428,589.5) translate(40 21.88888888888889)"/><path d="M20 748c0-4.42 3.58-8 8-8h444c4.42 0 8 3.58 8 8v149c0 4.42-3.58 8-8 8H28c-4.42 0-8-3.58-8-8z" fill="#fff"/><path d="M20 740h460v42H20z" fill="#ccc"/><path d="M20 748c0-4.42 3.58-8 8-8h444c4.42 0 8 3.58 8 8v149c0 4.42-3.58 8-8 8H28c-4.42 0-8-3.58-8-8zM20 782h460M250 782v123" stroke="#666" fill="none"/><use xlink:href="#R" transform="matrix(1,0,0,1,30,740) translate(149.14222222222222 25.200000000000003)"/><use xlink:href="#S" transform="matrix(1,0,0,1,25,784.5) translate(14 27.726666666666667)"/><use xlink:href="#k" transform="matrix(1,0,0,1,255,784.5) translate(14 27.726666666666667)"/><use xlink:href="#T" transform="matrix(1,0,0,1,25,826.5) translate(14 27.726666666666667)"/><use xlink:href="#k" transform="matrix(1,0,0,1,255,826.5) translate(14 27.726666666666667)"/><use xlink:href="#E" transform="matrix(1,0,0,1,25,868.5) translate(0 21.88888888888889)"/><use xlink:href="#U" transform="matrix(1,0,0,1,25,868.5) translate(13.580246913580249 21.88888888888889)"/><use xlink:href="#E" transform="matrix(1,0,0,1,255,868.5) translate(0 21.88888888888889)"/><use xlink:href="#h" transform="matrix(1,0,0,1,255,868.5) translate(13.580246913580249 21.88888888888889)"/><path d="M760 595.25c0-4.4 3.58-8 8-8h384c4.42 0 8 3.6 8 8v329c0 4.42-3.58 8-8 8H768c-4.42 0-8-3.58-8-8z" fill="#fff"/><path d="M760 587.25h400v42H760z" fill="#ccc"/><path d="M760 595.25c0-4.4 3.58-8 8-8h384c4.42 0 8 3.6 8 8v329c0 4.42-3.58 8-8 8H768c-4.42 0-8-3.58-8-8zM760 629.25h400M960 629.25v303" stroke="#666" fill="none"/><use xlink:href="#V" transform="matrix(1,0,0,1,770,587.2544752464694) translate(14 30.226666666666667)"/><use xlink:href="#W" transform="matrix(1,0,0,1,770,587.2544752464694) translate(125.31999999999996 30.226666666666667)"/><use xlink:href="#z" transform="matrix(1,0,0,1,765,631.7544752464694) translate(14 27.726666666666667)"/><use xlink:href="#A" transform="matrix(1,0,0,1,765,631.7544752464694) translate(40.22888888888889 27.726666666666667)"/><use xlink:href="#k" transform="matrix(1,0,0,1,965,631.7544752464694) translate(14 27.726666666666667)"/><use xlink:href="#X" transform="matrix(1,0,0,1,765,673.7544752464694) translate(14 27.726666666666667)"/><use xlink:href="#k" transform="matrix(1,0,0,1,965,673.7544752464694) translate(14 27.726666666666667)"/><use xlink:href="#Y" transform="matrix(1,0,0,1,765,715.7544752464694) translate(14 27.726666666666667)"/><use xlink:href="#k" transform="matrix(1,0,0,1,965,715.7544752464694) translate(14 27.726666666666667)"/><use xlink:href="#l" transform="matrix(1,0,0,1,765,757.7544752464694) translate(0 21.88888888888889)"/><use xlink:href="#Z" transform="matrix(1,0,0,1,765,757.7544752464694) translate(20.370370370370374 21.88888888888889)"/><use xlink:href="#n" transform="matrix(1,0,0,1,765,757.7544752464694) translate(134.3765432098766 21.88888888888889)"/><use xlink:href="#u" transform="matrix(1,0,0,1,965,757.7544752464694) translate(0 21.88888888888889)"/><use xlink:href="#h" transform="matrix(1,0,0,1,965,757.7544752464694) translate(27.160493827160497 21.88888888888889)"/><use xlink:href="#u" transform="matrix(1,0,0,1,765,796.7544752464694) translate(0 36.888888888888886)"/><use xlink:href="#aa" transform="matrix(1,0,0,1,765,796.7544752464694) translate(27.160493827160497 36.888888888888886)"/><use xlink:href="#l" transform="matrix(1,0,0,1,965,796.7544752464694) translate(0 36.888888888888886)"/><use xlink:href="#ab" transform="matrix(1,0,0,1,965,796.7544752464694) translate(20.370370370370374 36.888888888888886)"/><use xlink:href="#l" transform="matrix(1,0,0,1,765,865.7544752464694) translate(0 36.888888888888886)"/><use xlink:href="#ac" transform="matrix(1,0,0,1,765,865.7544752464694) translate(20.370370370370374 36.888888888888886)"/><use xlink:href="#n" transform="matrix(1,0,0,1,765,865.7544752464694) translate(101.78395061728398 36.888888888888886)"/><use xlink:href="#E" transform="matrix(1,0,0,1,965,865.7544752464694) translate(0 36.888888888888886)"/><use xlink:href="#h" transform="matrix(1,0,0,1,965,865.7544752464694) translate(13.580246913580249 36.888888888888886)"/><path d="M760 1068c0-4.42 3.58-8 8-8h304c4.42 0 8 3.58 8 8v152c0 4.42-3.58 8-8 8H768c-4.42 0-8-3.58-8-8z" fill="#fff"/><path d="M760 1060h320v42H760z" fill="#ccc"/><path d="M760 1068c0-4.42 3.58-8 8-8h304c4.42 0 8 3.58 8 8v152c0 4.42-3.58 8-8 8H768c-4.42 0-8-3.58-8-8zM760 1102h320M920 1102v126" stroke="#666" fill="none"/><use xlink:href="#ad" transform="matrix(1,0,0,1,770,1060) translate(14 30.226666666666667)"/><use xlink:href="#ae" transform="matrix(1,0,0,1,770,1060) translate(75.84444444444445 30.226666666666667)"/><use xlink:href="#z" transform="matrix(1,0,0,1,765,1104.5) translate(14 27.726666666666667)"/><use xlink:href="#A" transform="matrix(1,0,0,1,765,1104.5) translate(40.22888888888889 27.726666666666667)"/><use xlink:href="#k" transform="matrix(1,0,0,1,925,1104.5) translate(14 27.726666666666667)"/><use xlink:href="#af" transform="matrix(1,0,0,1,765,1146.5) translate(14 27.726666666666667)"/><use xlink:href="#k" transform="matrix(1,0,0,1,925,1146.5) translate(14 27.726666666666667)"/><use xlink:href="#ag" transform="matrix(1,0,0,1,765,1188.5) translate(14 27.726666666666667)"/><use xlink:href="#k" transform="matrix(1,0,0,1,925,1188.5) translate(14 27.726666666666667)"/><path d="M569.96 83c0-6.63 5.37-12 12-12h596.08c6.63 0 12 5.37 12 12v18c0 6.63-5.37 12-12 12H581.96c-6.63 0-12-5.37-12-12z" stroke="#000" stroke-opacity="0" stroke-width="2" fill="#fff" fill-opacity="0"/><use xlink:href="#ah" transform="matrix(1,0,0,1,574.9564450882754,76) translate(108.72222222222223 21.333333333333336)"/><use xlink:href="#ai" transform="matrix(1,0,0,1,574.9564450882754,76) translate(234.42592592592592 21.333333333333336)"/><use xlink:href="#aj" transform="matrix(1,0,0,1,574.9564450882754,76) translate(278.7962962962963 21.333333333333336)"/><use xlink:href="#ak" transform="matrix(1,0,0,1,574.9564450882754,76) translate(392.72222222222223 21.333333333333336)"/><path d="M569.96 113c0-6.63 5.37-12 12-12h596.08c6.63 0 12 5.37 12 12v14c0 6.63-5.37 12-12 12H581.96c-6.63 0-12-5.37-12-12z" stroke="#000" stroke-opacity="0" stroke-width="2" fill="#fff" fill-opacity="0"/><use xlink:href="#al" transform="matrix(1,0,0,1,574.9564450882754,106.00000000000003) translate(189.22222222222223 17.61111111111111)"/><use xlink:href="#am" transform="matrix(1,0,0,1,574.9564450882754,106.00000000000003) translate(257.3641975308642 17.61111111111111)"/><use xlink:href="#an" transform="matrix(1,0,0,1,574.9564450882754,106.00000000000003) translate(311.7654320987655 17.61111111111111)"/><use xlink:href="#ao" transform="matrix(1,0,0,1,574.9564450882754,106.00000000000003) translate(324.4259259259259 17.61111111111111)"/><use xlink:href="#ap" transform="matrix(1,0,0,1,574.9564450882754,106.00000000000003) translate(362.4506172839506 17.61111111111111)"/><use xlink:href="#aq" transform="matrix(1,0,0,1,574.9564450882754,106.00000000000003) translate(387.2098765432099 17.61111111111111)"/><path d="M644.73 108.02h474.03M644.76 108.02h-1.03M1118.73 108.02h1.03" stroke="#b2b2b2" stroke-width="2" fill="none"/><path d="M500.5 885.5H513c4.14 0 7.5-3.36 7.5-7.5V174.5c0-4.14-3.36-7.5-7.5-7.5H361.14" stroke="#999" fill="none"/><path fill="#fff"/><path d="M501 895.5h-1v-20h1z" fill="#999"/><path fill="#fff"/><path d="M500.5 886h-20v-1h20z" fill="#999"/><path d="M341.95 157l20 10-20 10z" fill="#fff"/><path d="M363.07 167l-20.9 10.45-.44-.9 19.1-9.55-19.1-9.55.45-.9z" fill="#999"/><path fill="#fff"/><path d="M361.95 167.5h-20v-1h20z" fill="#999"/><path d="M559.5 241h-91.38c-4.15 0-7.5-3.36-7.5-7.5v-59c0-4.14-3.36-7.5-7.5-7.5h-91.98" stroke="#999" fill="none"/><path fill="#fff"/><path d="M560 251h-1v-20h1z" fill="#999"/><path fill="#fff"/><path d="M579.5 241.5h-20v-1h20z" fill="#999"/><path d="M341.95 157l20 10-20 10z" fill="#fff"/><path d="M363.07 167l-20.9 10.45-.44-.9 19.1-9.55-19.1-9.55.45-.9z" fill="#999"/><path fill="#fff"/><path d="M361.95 167.5h-20v-1h20z" fill="#999"/><path d="M739.5 897.75H558.12c-4.15 0-7.5-3.35-7.5-7.5V174.5c0-4.14-3.36-7.5-7.5-7.5H361.14" stroke="#999" fill="none"/><path fill="#fff"/><path d="M740 907.75h-1v-20h1z" fill="#999"/><path fill="#fff"/><path d="M759.5 898.25h-20v-1h20z" fill="#999"/><path d="M341.95 157l20 10-20 10z" fill="#fff"/><path d="M363.07 167l-20.9 10.45-.44-.9 19.1-9.55-19.1-9.55.45-.9z" fill="#999"/><path fill="#fff"/><path d="M361.95 167.5h-20v-1h20z" fill="#999"/><path d="M739.5 774.8H727c-4.14 0-7.5 3.35-7.5 7.5v332.3c0 4.15 3.36 7.5 7.5 7.5h13.1" stroke="#999" fill="none"/><path fill="#fff"/><path d="M740 784.8h-1v-20h1z" fill="#999"/><path fill="#fff"/><path d="M759.5 775.3h-20v-1h20z" fill="#999"/><path d="M759.28 1132.1l-20-10 20-10z" fill="#fff"/><path d="M759.5 1112.56l-19.1 9.55 19.1 9.56-.45.9-20.9-10.45 20.9-10.44z" fill="#999"/><path fill="#fff"/><path d="M759.28 1122.6h-20v-1h20z" fill="#999"/><path d="M361.23 606.5h181.64c4.14 0 7.5 3.36 7.5 7.5v501.43c0 4.15 3.35 7.5 7.5 7.5H740.1" stroke="#999" fill="none"/><path fill="#fff"/><path d="M361.73 616.5h-1v-20h1z" fill="#999"/><path fill="#fff"/><path d="M361.23 607h-19.5v-1h19.5z" fill="#999"/><path d="M759.28 1132.93l-20-10 20-10z" fill="#fff"/><path d="M759.5 1113.38l-19.1 9.55 19.1 9.56-.45.88-20.9-10.45 20.9-10.44z" fill="#999"/><path fill="#fff"/><path d="M759.28 1123.43h-20v-1h20z" fill="#999"/><defs><path d="M121-226c-27-7-43 5-38 36h38v33H83V0H34v-157H6v-33h28c-9-59 32-81 87-68v32" id="ar"/><path d="M147 0L96-86 75-71V0H25v-261h50v150l67-79h53l-66 74L201 0h-54" id="as"/><g id="a"><use transform="matrix(0.07407407407407408,0,0,0.07407407407407408,0,0)" xlink:href="#ar"/><use transform="matrix(0.07407407407407408,0,0,0.07407407407407408,8.814814814814817,0)" xlink:href="#as"/></g><path d="M211 14C88 14 52-63 52-189v-311h130v284c2 72 6 113 71 115 52 1 83-37 98-76v-323h130c6 167-14 358 16 500h-98l-23-74h-4c-29 48-84 88-161 88" id="at"/><path d="M200-90c53 9 88-53 47-80-80-53-213-55-211-192 2-102 65-152 171-152 67 0 135 17 175 39l-29 94c-31-11-84-29-129-29-54 0-78 51-41 74 81 50 213 53 211 187-2 110-75 163-194 163C133 14 65-7 25-31l36-97c31 17 89 40 139 38" id="au"/><path d="M291-90c49 0 97-19 123-38l43 85c-40 32-117 57-191 57C103 14 34-89 33-250c-2-167 81-264 240-264 129 0 199 68 200 202 0 33-4 65-10 95H163c5 84 39 127 128 127zm61-208c5-67-19-112-81-112-71-1-98 47-105 112h186" id="av"/><path d="M177-434c23-61 95-96 173-66l-17 122c-64-28-134-1-146 55V0H57v-500h101l15 66h4" id="aw"/><path d="M54-345h251v115H54v-115" id="ax"/><path d="M269 14C107 14 36-88 33-250c-2-161 81-264 236-264 162 0 233 102 235 264 2 161-80 264-235 264zm0-418c-78 0-104 61-102 154 1 82 21 154 102 154 80 0 101-62 101-154 0-83-21-154-101-154" id="ay"/><path d="M283-512c75-1 146 12 197 30V0c1 145-82 211-224 212-78 1-132-10-176-31l27-103c36 13 74 27 129 27 98 0 121-48 117-144h-4C326-8 284 8 225 8 81 8 33-84 33-240c-1-172 82-272 250-272zM167-245c0 83 22 149 93 149 55 0 75-25 90-68v-225c-21-9-46-13-77-13-80 0-107 63-106 157" id="az"/><g id="c"><use transform="matrix(0.024444444444444446,0,0,0.024444444444444446,0,0)" xlink:href="#at"/><use transform="matrix(0.024444444444444446,0,0,0.024444444444444446,13.151111111111112,0)" xlink:href="#au"/><use transform="matrix(0.024444444444444446,0,0,0.024444444444444446,23.46666666666667,0)" xlink:href="#av"/><use transform="matrix(0.024444444444444446,0,0,0.024444444444444446,35.88444444444445,0)" xlink:href="#aw"/><use transform="matrix(0.024444444444444446,0,0,0.024444444444444446,44.464444444444446,0)" xlink:href="#ax"/><use transform="matrix(0.024444444444444446,0,0,0.024444444444444446,53.26444444444445,0)" xlink:href="#ay"/><use transform="matrix(0.024444444444444446,0,0,0.024444444444444446,66.39111111111112,0)" xlink:href="#aw"/><use transform="matrix(0.024444444444444446,0,0,0.024444444444444446,74.97111111111111,0)" xlink:href="#az"/></g><path d="M24-231v-30h32v30H24zM24 0v-190h32V0H24" id="aA"/><path d="M85-194c31 0 48 13 60 33l-1-100h32l1 261h-30c-2-10 0-23-3-31C134-8 116 4 85 4 32 4 16-35 15-94c0-66 23-100 70-100zm9 24c-40 0-46 34-46 75 0 40 6 74 45 74 42 0 51-32 51-76 0-42-9-74-50-73" id="aB"/><g id="e"><use transform="matrix(0.06790123456790124,0,0,0.06790123456790124,0,0)" xlink:href="#aA"/><use transform="matrix(0.06790123456790124,0,0,0.06790123456790124,5.364197530864199,0)" xlink:href="#aB"/></g><path d="M87 75C49 33 22-17 22-94c0-76 28-126 65-167h31c-38 41-64 92-64 168S80 34 118 75H87" id="aC"/><path d="M115-194c55 1 70 41 70 98S169 2 115 4C84 4 66-9 55-30l1 105H24l-1-265h31l2 30c10-21 28-34 59-34zm-8 174c40 0 45-34 45-75s-6-73-45-74c-42 0-51 32-51 76 0 43 10 73 51 73" id="aD"/><path d="M143 0L79-87 56-68V0H24v-261h32v163l83-92h37l-77 82L181 0h-38" id="aE"/><path d="M33-261c38 41 65 92 65 168S71 34 33 75H2C39 34 66-17 66-93S39-220 2-261h31" id="aF"/><g id="f"><use transform="matrix(0.06790123456790124,0,0,0.06790123456790124,0,0)" xlink:href="#aC"/><use transform="matrix(0.06790123456790124,0,0,0.06790123456790124,8.080246913580249,0)" xlink:href="#aD"/><use transform="matrix(0.06790123456790124,0,0,0.06790123456790124,21.660493827160497,0)" xlink:href="#aE"/><use transform="matrix(0.06790123456790124,0,0,0.06790123456790124,33.88271604938272,0)" xlink:href="#aF"/></g><path d="M59-47c-2 24 18 29 38 22v24C64 9 27 4 27-40v-127H5v-23h24l9-43h21v43h35v23H59v120" id="aG"/><path d="M100-194c63 0 86 42 84 106H49c0 40 14 67 53 68 26 1 43-12 49-29l28 8c-11 28-37 45-77 45C44 4 14-33 15-96c1-61 26-98 85-98zm52 81c6-60-76-77-97-28-3 7-6 17-6 28h103" id="aH"/><path d="M141 0L90-78 38 0H4l68-98-65-92h35l48 74 47-74h35l-64 92 68 98h-35" id="aI"/><g id="h"><use transform="matrix(0.06790123456790124,0,0,0.06790123456790124,0,0)" xlink:href="#aG"/><use transform="matrix(0.06790123456790124,0,0,0.06790123456790124,6.790123456790124,0)" xlink:href="#aH"/><use transform="matrix(0.06790123456790124,0,0,0.06790123456790124,20.370370370370374,0)" xlink:href="#aI"/><use transform="matrix(0.06790123456790124,0,0,0.06790123456790124,32.592592592592595,0)" xlink:href="#aG"/></g><path d="M232 12C103 12 68-68 69-198v-302h80v285c0 87 12 158 98 157 78-1 111-51 135-108v-334h80c4 166-10 350 11 500h-55l-20-79h-5c-31 50-80 91-161 91" id="aJ"/><path d="M63-93c59 36 240 71 234-43-5-91-121-82-179-124-34-24-62-54-62-113 0-97 59-138 155-139 66-1 112 13 154 32l-19 66c-52-26-221-63-210 39 9 83 124 74 178 118 33 27 64 57 63 118-3 103-68 149-174 151C134 13 81-3 39-25" id="aK"/><path d="M293-58c43 0 98-19 119-40l30 58C404-9 338 12 270 12 112 10 51-92 49-250c-1-159 70-258 220-262 155-4 211 110 184 270H132c0 116 45 184 161 184zm88-247c1-92-30-137-111-137-89 0-129 46-137 137h248" id="aL"/><path d="M152-439c26-60 97-88 178-61l-17 77c-74-29-156 5-156 73V0H77v-500h56l15 61h4" id="aM"/><path d="M104-700h83V0h-83v-700" id="aN"/><path d="M276-509c50 0 69 4 105 17v-208h80v528c1 67-1 118 10 174h-54l-20-71h-4c-25 44-78 82-147 81C97 8 50-86 49-248c-1-159 77-260 227-261zM132-248c1 104 26 190 127 190 75 0 108-41 122-107v-248c-27-20-53-26-102-26-105 0-148 72-147 191" id="aO"/><g id="i"><use transform="matrix(0.024444444444444446,0,0,0.024444444444444446,0,0)" xlink:href="#aJ"/><use transform="matrix(0.024444444444444446,0,0,0.024444444444444446,13.175555555555556,0)" xlink:href="#aK"/><use transform="matrix(0.024444444444444446,0,0,0.024444444444444446,23.46666666666667,0)" xlink:href="#aL"/><use transform="matrix(0.024444444444444446,0,0,0.024444444444444446,35.88444444444445,0)" xlink:href="#aM"/><use transform="matrix(0.024444444444444446,0,0,0.024444444444444446,44.19555555555556,0)" xlink:href="#aN"/><use transform="matrix(0.024444444444444446,0,0,0.024444444444444446,51.308888888888895,0)" xlink:href="#aO"/></g><path d="M140-243c0 179 54 323 138 426l-51 37C82 82 14-227 98-482c29-88 73-167 132-230l48 35c-85 108-138 247-138 434" id="aP"/><path d="M251-636c-75-3-71 63-71 136h133v70H180V0h-80v-430H22v-70h78c-5-124 22-209 143-206 47 1 73 5 108 19l-18 67c-26-12-50-15-82-16" id="aQ"/><path d="M203-225h-46V0H77v-700h80v426l41-14 155-212h93L293-299l-41 33 50 40L469 0h-99" id="aR"/><path d="M140-249c0-178-54-323-138-426l51-37C198-574 266-265 182-10c-29 88-73 167-132 230L2 185C87 77 140-63 140-249" id="aS"/><g id="j"><use transform="matrix(0.024444444444444446,0,0,0.024444444444444446,0,0)" xlink:href="#aP"/><use transform="matrix(0.024444444444444446,0,0,0.024444444444444446,6.844444444444445,0)" xlink:href="#aQ"/><use transform="matrix(0.024444444444444446,0,0,0.024444444444444446,14.642222222222223,0)" xlink:href="#aR"/><use transform="matrix(0.024444444444444446,0,0,0.024444444444444446,26.351111111111113,0)" xlink:href="#aS"/></g><path d="M200 12C109 10 89-39 89-138v-292H11v-70h78v-99l80-23v122h136v70H169v277c1 59 6 93 57 95 38 1 55-9 84-20l18 61c-35 17-77 30-128 29" id="aT"/><path d="M208-256L40-500h98c42 64 91 121 123 195 33-74 83-131 126-195h90L308-260 487 0h-95c-46-70-100-132-136-212-37 80-92 142-139 212H28" id="aU"/><g id="k"><use transform="matrix(0.024444444444444446,0,0,0.024444444444444446,0,0)" xlink:href="#aT"/><use transform="matrix(0.024444444444444446,0,0,0.024444444444444446,8.017777777777779,0)" xlink:href="#aL"/><use transform="matrix(0.024444444444444446,0,0,0.024444444444444446,19.873333333333335,0)" xlink:href="#aU"/><use transform="matrix(0.024444444444444446,0,0,0.024444444444444446,32.46222222222222,0)" xlink:href="#aT"/></g><path d="M100-194c62-1 85 37 85 99 1 63-27 99-86 99S16-35 15-95c0-66 28-99 85-99zM99-20c44 1 53-31 53-75 0-43-8-75-51-75s-53 32-53 75 10 74 51 75" id="aV"/><path d="M114-163C36-179 61-72 57 0H25l-1-190h30c1 12-1 29 2 39 6-27 23-49 58-41v29" id="aW"/><path d="M177-190C167-65 218 103 67 71c-23-6-38-20-44-43l32-5c15 47 100 32 89-28v-30C133-14 115 1 83 1 29 1 15-40 15-95c0-56 16-97 71-98 29-1 48 16 59 35 1-10 0-23 2-32h30zM94-22c36 0 50-32 50-73 0-42-14-75-50-75-39 0-46 34-46 75s6 73 46 73" id="aX"/><path d="M141-36C126-15 110 5 73 4 37 3 15-17 15-53c-1-64 63-63 125-63 3-35-9-54-41-54-24 1-41 7-42 31l-33-3c5-37 33-52 76-52 45 0 72 20 72 64v82c-1 20 7 32 28 27v20c-31 9-61-2-59-35zM48-53c0 20 12 33 32 33 41-3 63-29 60-74-43 2-92-5-92 41" id="aY"/><path d="M117-194c89-4 53 116 60 194h-32v-121c0-31-8-49-39-48C34-167 62-67 57 0H25l-1-190h30c1 10-1 24 2 32 11-22 29-35 61-36" id="aZ"/><path d="M135-143c-3-34-86-38-87 0 15 53 115 12 119 90S17 21 10-45l28-5c4 36 97 45 98 0-10-56-113-15-118-90-4-57 82-63 122-42 12 7 21 19 24 35" id="ba"/><path d="M33 0v-248h34V0H33" id="bb"/><g id="m"><use transform="matrix(0.06790123456790124,0,0,0.06790123456790124,0,0)" xlink:href="#aV"/><use transform="matrix(0.06790123456790124,0,0,0.06790123456790124,13.580246913580249,0)" xlink:href="#aW"/><use transform="matrix(0.06790123456790124,0,0,0.06790123456790124,21.660493827160497,0)" xlink:href="#aX"/><use transform="matrix(0.06790123456790124,0,0,0.06790123456790124,35.24074074074075,0)" xlink:href="#aY"/><use transform="matrix(0.06790123456790124,0,0,0.06790123456790124,48.820987654320994,0)" xlink:href="#aZ"/><use transform="matrix(0.06790123456790124,0,0,0.06790123456790124,62.40123456790124,0)" xlink:href="#aA"/><use transform="matrix(0.06790123456790124,0,0,0.06790123456790124,67.76543209876544,0)" xlink:href="#ba"/><use transform="matrix(0.06790123456790124,0,0,0.06790123456790124,79.98765432098767,0)" xlink:href="#aY"/><use transform="matrix(0.06790123456790124,0,0,0.06790123456790124,93.56790123456793,0)" xlink:href="#aG"/><use transform="matrix(0.06790123456790124,0,0,0.06790123456790124,100.35802469135805,0)" xlink:href="#aA"/><use transform="matrix(0.06790123456790124,0,0,0.06790123456790124,105.72222222222226,0)" xlink:href="#aV"/><use transform="matrix(0.06790123456790124,0,0,0.06790123456790124,119.30246913580251,0)" xlink:href="#aZ"/><use transform="matrix(0.06790123456790124,0,0,0.06790123456790124,132.88271604938276,0)" xlink:href="#bb"/><use transform="matrix(0.06790123456790124,0,0,0.06790123456790124,139.6728395061729,0)" xlink:href="#aB"/></g><path d="M101-234c-31-9-42 10-38 44h38v23H63V0H32v-167H5v-23h27c-7-52 17-82 69-68v24" id="bc"/><g id="n"><use transform="matrix(0.06790123456790124,0,0,0.06790123456790124,0,0)" xlink:href="#aC"/><use transform="matrix(0.06790123456790124,0,0,0.06790123456790124,8.080246913580249,0)" xlink:href="#bc"/><use transform="matrix(0.06790123456790124,0,0,0.06790123456790124,14.870370370370374,0)" xlink:href="#aE"/><use transform="matrix(0.06790123456790124,0,0,0.06790123456790124,27.092592592592595,0)" xlink:href="#aF"/></g><g id="o"><use transform="matrix(0.06790123456790124,0,0,0.06790123456790124,0,0)" xlink:href="#aG"/><use transform="matrix(0.06790123456790124,0,0,0.06790123456790124,6.790123456790124,0)" xlink:href="#aH"/><use transform="matrix(0.06790123456790124,0,0,0.06790123456790124,20.370370370370374,0)" xlink:href="#aI"/><use transform="matrix(0.06790123456790124,0,0,0.06790123456790124,32.592592592592595,0)" xlink:href="#aG"/></g><path d="M160-131c35 5 61 23 61 61C221 17 115-2 30 0v-248c76 3 177-17 177 60 0 33-19 50-47 57zm-97-11c50-1 110 9 110-42 0-47-63-36-110-37v79zm0 115c55-2 124 14 124-45 0-56-70-42-124-44v89" id="bd"/><path d="M179-190L93 31C79 59 56 82 12 73V49c39 6 53-20 64-50L1-190h34L92-34l54-156h33" id="be"/><g id="p"><use transform="matrix(0.06790123456790124,0,0,0.06790123456790124,0,0)" xlink:href="#aY"/><use transform="matrix(0.06790123456790124,0,0,0.06790123456790124,13.580246913580249,0)" xlink:href="#aB"/><use transform="matrix(0.06790123456790124,0,0,0.06790123456790124,27.160493827160497,0)" xlink:href="#aB"/><use transform="matrix(0.06790123456790124,0,0,0.06790123456790124,40.74074074074075,0)" xlink:href="#aH"/><use transform="matrix(0.06790123456790124,0,0,0.06790123456790124,54.320987654320994,0)" xlink:href="#aB"/><use transform="matrix(0.06790123456790124,0,0,0.06790123456790124,67.90123456790124,0)" xlink:href="#bd"/><use transform="matrix(0.06790123456790124,0,0,0.06790123456790124,84.19753086419755,0)" xlink:href="#be"/></g><path d="M153-248C145-148 188 4 80 4 36 3 13-21 6-62l32-5c4 25 16 42 43 43 27 0 39-20 39-49v-147H72v-28h81" id="bf"/><path d="M30-248c118-7 216 8 213 122C240-48 200 0 122 0H30v-248zM63-27c89 8 146-16 146-99s-60-101-146-95v194" id="bg"/><g id="q"><use transform="matrix(0.06790123456790124,0,0,0.06790123456790124,0,0)" xlink:href="#aV"/><use transform="matrix(0.06790123456790124,0,0,0.06790123456790124,13.580246913580249,0)" xlink:href="#aW"/><use transform="matrix(0.06790123456790124,0,0,0.06790123456790124,21.660493827160497,0)" xlink:href="#aX"/><use transform="matrix(0.06790123456790124,0,0,0.06790123456790124,35.24074074074075,0)" xlink:href="#bf"/><use transform="matrix(0.06790123456790124,0,0,0.06790123456790124,47.46296296296297,0)" xlink:href="#aV"/><use transform="matrix(0.06790123456790124,0,0,0.06790123456790124,61.043209876543216,0)" xlink:href="#aA"/><use transform="matrix(0.06790123456790124,0,0,0.06790123456790124,66.40740740740742,0)" xlink:href="#aZ"/><use transform="matrix(0.06790123456790124,0,0,0.06790123456790124,79.98765432098767,0)" xlink:href="#aA"/><use transform="matrix(0.06790123456790124,0,0,0.06790123456790124,85.35185185185188,0)" xlink:href="#aZ"/><use transform="matrix(0.06790123456790124,0,0,0.06790123456790124,98.93209876543213,0)" xlink:href="#aX"/><use transform="matrix(0.06790123456790124,0,0,0.06790123456790124,112.51234567901238,0)" xlink:href="#bg"/><use transform="matrix(0.06790123456790124,0,0,0.06790123456790124,130.09876543209882,0)" xlink:href="#aY"/><use transform="matrix(0.06790123456790124,0,0,0.06790123456790124,143.67901234567907,0)" xlink:href="#aG"/><use transform="matrix(0.06790123456790124,0,0,0.06790123456790124,150.4691358024692,0)" xlink:href="#aH"/></g><path d="M30 0v-248h33v221h125V0H30" id="bh"/><g id="r"><use transform="matrix(0.06790123456790124,0,0,0.06790123456790124,0,0)" xlink:href="#aV"/><use transform="matrix(0.06790123456790124,0,0,0.06790123456790124,13.580246913580249,0)" xlink:href="#aW"/><use transform="matrix(0.06790123456790124,0,0,0.06790123456790124,21.660493827160497,0)" xlink:href="#aX"/><use transform="matrix(0.06790123456790124,0,0,0.06790123456790124,35.24074074074075,0)" xlink:href="#bh"/><use transform="matrix(0.06790123456790124,0,0,0.06790123456790124,48.820987654320994,0)" xlink:href="#aH"/><use transform="matrix(0.06790123456790124,0,0,0.06790123456790124,62.40123456790124,0)" xlink:href="#bc"/><use transform="matrix(0.06790123456790124,0,0,0.06790123456790124,69.19135802469137,0)" xlink:href="#aG"/><use transform="matrix(0.06790123456790124,0,0,0.06790123456790124,75.9814814814815,0)" xlink:href="#bg"/><use transform="matrix(0.06790123456790124,0,0,0.06790123456790124,93.56790123456791,0)" xlink:href="#aY"/><use transform="matrix(0.06790123456790124,0,0,0.06790123456790124,107.14814814814817,0)" xlink:href="#aG"/><use transform="matrix(0.06790123456790124,0,0,0.06790123456790124,113.9382716049383,0)" xlink:href="#aH"/></g><path d="M24 0v-261h32V0H24" id="bi"/><g id="s"><use transform="matrix(0.06790123456790124,0,0,0.06790123456790124,0,0)" xlink:href="#aA"/><use transform="matrix(0.06790123456790124,0,0,0.06790123456790124,5.364197530864199,0)" xlink:href="#ba"/><use transform="matrix(0.06790123456790124,0,0,0.06790123456790124,17.58641975308642,0)" xlink:href="#bg"/><use transform="matrix(0.06790123456790124,0,0,0.06790123456790124,35.17283950617284,0)" xlink:href="#aH"/><use transform="matrix(0.06790123456790124,0,0,0.06790123456790124,48.75308641975309,0)" xlink:href="#bi"/><use transform="matrix(0.06790123456790124,0,0,0.06790123456790124,54.117283950617285,0)" xlink:href="#aH"/><use transform="matrix(0.06790123456790124,0,0,0.06790123456790124,67.69753086419753,0)" xlink:href="#aG"/><use transform="matrix(0.06790123456790124,0,0,0.06790123456790124,74.48765432098766,0)" xlink:href="#aH"/><use transform="matrix(0.06790123456790124,0,0,0.06790123456790124,88.06790123456791,0)" xlink:href="#aB"/></g><path d="M115-194c53 0 69 39 70 98 0 66-23 100-70 100C84 3 66-7 56-30L54 0H23l1-261h32v101c10-23 28-34 59-34zm-8 174c40 0 45-34 45-75 0-40-5-75-45-74-42 0-51 32-51 76 0 43 10 73 51 73" id="bj"/><g id="t"><use transform="matrix(0.06790123456790124,0,0,0.06790123456790124,0,0)" xlink:href="#bj"/><use transform="matrix(0.06790123456790124,0,0,0.06790123456790124,13.580246913580249,0)" xlink:href="#aV"/><use transform="matrix(0.06790123456790124,0,0,0.06790123456790124,27.160493827160497,0)" xlink:href="#aV"/><use transform="matrix(0.06790123456790124,0,0,0.06790123456790124,40.74074074074075,0)" xlink:href="#bi"/><use transform="matrix(0.06790123456790124,0,0,0.06790123456790124,46.104938271604944,0)" xlink:href="#aH"/><use transform="matrix(0.06790123456790124,0,0,0.06790123456790124,59.6851851851852,0)" xlink:href="#aY"/><use transform="matrix(0.06790123456790124,0,0,0.06790123456790124,73.26543209876544,0)" xlink:href="#aZ"/></g><g id="v"><use transform="matrix(0.06790123456790124,0,0,0.06790123456790124,0,0)" xlink:href="#aW"/><use transform="matrix(0.06790123456790124,0,0,0.06790123456790124,8.080246913580249,0)" xlink:href="#aV"/><use transform="matrix(0.06790123456790124,0,0,0.06790123456790124,21.660493827160497,0)" xlink:href="#bi"/><use transform="matrix(0.06790123456790124,0,0,0.06790123456790124,27.024691358024697,0)" xlink:href="#aH"/><use transform="matrix(0.06790123456790124,0,0,0.06790123456790124,40.604938271604944,0)" xlink:href="#ba"/></g><g id="w"><use transform="matrix(0.06790123456790124,0,0,0.06790123456790124,0,0)" xlink:href="#bi"/><use transform="matrix(0.06790123456790124,0,0,0.06790123456790124,5.364197530864199,0)" xlink:href="#aA"/><use transform="matrix(0.06790123456790124,0,0,0.06790123456790124,10.728395061728397,0)" xlink:href="#ba"/><use transform="matrix(0.06790123456790124,0,0,0.06790123456790124,22.95061728395062,0)" xlink:href="#aG"/></g><g id="y"><use transform="matrix(0.024444444444444446,0,0,0.024444444444444446,0,0)" xlink:href="#at"/><use transform="matrix(0.024444444444444446,0,0,0.024444444444444446,13.151111111111112,0)" xlink:href="#au"/><use transform="matrix(0.024444444444444446,0,0,0.024444444444444446,23.46666666666667,0)" xlink:href="#av"/><use transform="matrix(0.024444444444444446,0,0,0.024444444444444446,35.88444444444445,0)" xlink:href="#aw"/></g><path d="M94-500h80V0H94v-500zm38-99c-31 0-55-23-55-53s24-56 55-56 58 26 58 56-28 53-58 53" id="bk"/><g id="z"><use transform="matrix(0.024444444444444446,0,0,0.024444444444444446,0,0)" xlink:href="#bk"/><use transform="matrix(0.024444444444444446,0,0,0.024444444444444446,6.551111111111111,0)" xlink:href="#aO"/></g><path d="M262 12c-51 0-69-5-105-20v208H77v-700h55l15 60h4c28-43 75-72 143-72 149 0 198 89 198 252 0 161-73 272-230 272zm147-273c-1-103-28-181-130-181-75 0-107 41-122 107v248c27 20 53 30 102 29 104-2 152-86 150-203" id="bl"/><g id="A"><use transform="matrix(0.024444444444444446,0,0,0.024444444444444446,0,0)" xlink:href="#aP"/><use transform="matrix(0.024444444444444446,0,0,0.024444444444444446,6.844444444444445,0)" xlink:href="#bl"/><use transform="matrix(0.024444444444444446,0,0,0.024444444444444446,20.068888888888893,0)" xlink:href="#aR"/><use transform="matrix(0.024444444444444446,0,0,0.024444444444444446,31.77777777777778,0)" xlink:href="#aS"/></g><path d="M313-512c130 0 165 79 165 210V0h-80v-285c-2-94-16-155-105-157-72-1-118 46-136 100V0H77v-500h56l15 61h4c32-42 86-73 161-73" id="bm"/><path d="M290-509c71-1 121 13 170 30V23c0 132-72 189-204 189-71 0-115-8-159-27l21-68c37 13 69 25 124 25 122 0 148-66 139-191h-4c-28 39-65 61-132 60C95 9 50-86 49-248c-1-166 78-261 241-261zM132-249c2 104 25 190 127 190 75 0 106-39 121-105v-256c-27-13-61-19-102-19-103 0-147 74-146 190" id="bn"/><g id="B"><use transform="matrix(0.024444444444444446,0,0,0.024444444444444446,0,0)" xlink:href="#aN"/><use transform="matrix(0.024444444444444446,0,0,0.024444444444444446,7.113333333333333,0)" xlink:href="#bm"/><use transform="matrix(0.024444444444444446,0,0,0.024444444444444446,20.484444444444446,0)" xlink:href="#aT"/><use transform="matrix(0.024444444444444446,0,0,0.024444444444444446,28.502222222222223,0)" xlink:href="#aL"/><use transform="matrix(0.024444444444444446,0,0,0.024444444444444446,40.65111111111111,0)" xlink:href="#bn"/><use transform="matrix(0.024444444444444446,0,0,0.024444444444444446,53.77777777777778,0)" xlink:href="#aL"/><use transform="matrix(0.024444444444444446,0,0,0.024444444444444446,66.19555555555556,0)" xlink:href="#aM"/></g><path d="M268 12C112 12 51-93 49-250c-1-158 69-262 219-262 156 0 217 105 219 262 1 158-69 262-219 262zm136-262c0-105-32-190-136-192-91-2-136 63-136 192 0 105 33 189 136 192 91 2 136-63 136-192" id="bo"/><g id="C"><use transform="matrix(0.024444444444444446,0,0,0.024444444444444446,0,0)" xlink:href="#bo"/><use transform="matrix(0.024444444444444446,0,0,0.024444444444444446,13.102222222222222,0)" xlink:href="#aK"/><use transform="matrix(0.024444444444444446,0,0,0.024444444444444446,23.393333333333334,0)" xlink:href="#aN"/><use transform="matrix(0.024444444444444446,0,0,0.024444444444444446,30.506666666666668,0)" xlink:href="#aO"/></g><path d="M568-442c-74 2-103 45-118 108V0h-80v-283c0-87-6-159-94-159-65 0-104 47-119 98V0H77v-500h56l15 61h4c37-41 77-74 155-73 72 1 105 26 126 83 28-48 82-81 155-83 130-3 155 82 155 212V0h-80v-301c1-83-12-143-95-141" id="bp"/><path d="M422-354c0 120-19 253 8 356h-59l-21-70h-5C315-22 265 8 189 8 98 8 39-43 39-134c0-147 152-157 302-151 10-93 1-159-99-153-57 4-110 14-148 35l-25-60c48-30 118-45 194-45 108-1 159 51 159 154zM122-142c-2 47 40 81 89 80 67-1 109-32 130-79v-83c-95-3-214-10-219 82" id="bq"/><path d="M189 12C123 10 86-25 86-100v-600h80v577c-10 72 59 74 108 54l9 63c-18 10-66 18-94 18" id="br"/><g id="D"><use transform="matrix(0.024444444444444446,0,0,0.024444444444444446,0,0)" xlink:href="#aL"/><use transform="matrix(0.024444444444444446,0,0,0.024444444444444446,12.41777777777778,0)" xlink:href="#bp"/><use transform="matrix(0.024444444444444446,0,0,0.024444444444444446,32.266666666666666,0)" xlink:href="#bq"/><use transform="matrix(0.024444444444444446,0,0,0.024444444444444446,44.39111111111111,0)" xlink:href="#bk"/><use transform="matrix(0.024444444444444446,0,0,0.024444444444444446,50.94222222222223,0)" xlink:href="#br"/></g><path d="M106-169C34-169 62-67 57 0H25v-261h32l-1 103c12-21 28-36 61-36 89 0 53 116 60 194h-32v-121c2-32-8-49-39-48" id="bs"/><g id="F"><use transform="matrix(0.06790123456790124,0,0,0.06790123456790124,0,0)" xlink:href="#aD"/><use transform="matrix(0.06790123456790124,0,0,0.06790123456790124,13.580246913580249,0)" xlink:href="#bs"/><use transform="matrix(0.06790123456790124,0,0,0.06790123456790124,27.160493827160497,0)" xlink:href="#aV"/><use transform="matrix(0.06790123456790124,0,0,0.06790123456790124,40.74074074074075,0)" xlink:href="#aZ"/><use transform="matrix(0.06790123456790124,0,0,0.06790123456790124,54.320987654320994,0)" xlink:href="#aH"/></g><path d="M190 0L58-211 59 0H30v-248h39L202-35l-2-213h31V0h-41" id="bt"/><path d="M210-169c-67 3-38 105-44 169h-31v-121c0-29-5-50-35-48C34-165 62-65 56 0H25l-1-190h30c1 10-1 24 2 32 10-44 99-50 107 0 11-21 27-35 58-36 85-2 47 119 55 194h-31v-121c0-29-5-49-35-48" id="bu"/><g id="G"><use transform="matrix(0.06790123456790124,0,0,0.06790123456790124,0,0)" xlink:href="#bc"/><use transform="matrix(0.06790123456790124,0,0,0.06790123456790124,6.790123456790124,0)" xlink:href="#aA"/><use transform="matrix(0.06790123456790124,0,0,0.06790123456790124,12.154320987654323,0)" xlink:href="#aW"/><use transform="matrix(0.06790123456790124,0,0,0.06790123456790124,20.23456790123457,0)" xlink:href="#ba"/><use transform="matrix(0.06790123456790124,0,0,0.06790123456790124,32.45679012345679,0)" xlink:href="#aG"/><use transform="matrix(0.06790123456790124,0,0,0.06790123456790124,39.24691358024692,0)" xlink:href="#bt"/><use transform="matrix(0.06790123456790124,0,0,0.06790123456790124,56.83333333333334,0)" xlink:href="#aY"/><use transform="matrix(0.06790123456790124,0,0,0.06790123456790124,70.4135802469136,0)" xlink:href="#bu"/><use transform="matrix(0.06790123456790124,0,0,0.06790123456790124,90.71604938271606,0)" xlink:href="#aH"/></g><g id="H"><use transform="matrix(0.06790123456790124,0,0,0.06790123456790124,0,0)" xlink:href="#bi"/><use transform="matrix(0.06790123456790124,0,0,0.06790123456790124,5.364197530864199,0)" xlink:href="#aY"/><use transform="matrix(0.06790123456790124,0,0,0.06790123456790124,18.944444444444446,0)" xlink:href="#ba"/><use transform="matrix(0.06790123456790124,0,0,0.06790123456790124,31.16666666666667,0)" xlink:href="#aG"/><use transform="matrix(0.06790123456790124,0,0,0.06790123456790124,37.9567901234568,0)" xlink:href="#bt"/><use transform="matrix(0.06790123456790124,0,0,0.06790123456790124,55.543209876543216,0)" xlink:href="#aY"/><use transform="matrix(0.06790123456790124,0,0,0.06790123456790124,69.12345679012347,0)" xlink:href="#bu"/><use transform="matrix(0.06790123456790124,0,0,0.06790123456790124,89.42592592592594,0)" xlink:href="#aH"/></g><g id="I"><use transform="matrix(0.024444444444444446,0,0,0.024444444444444446,0,0)" xlink:href="#bn"/><use transform="matrix(0.024444444444444446,0,0,0.024444444444444446,13.126666666666667,0)" xlink:href="#aL"/><use transform="matrix(0.024444444444444446,0,0,0.024444444444444446,25.544444444444444,0)" xlink:href="#bm"/><use transform="matrix(0.024444444444444446,0,0,0.024444444444444446,38.91555555555556,0)" xlink:href="#aO"/><use transform="matrix(0.024444444444444446,0,0,0.024444444444444446,52.06666666666667,0)" xlink:href="#aL"/><use transform="matrix(0.024444444444444446,0,0,0.024444444444444446,64.48444444444445,0)" xlink:href="#aM"/></g><g id="J"><use transform="matrix(0.024444444444444446,0,0,0.024444444444444446,0,0)" xlink:href="#aK"/><use transform="matrix(0.024444444444444446,0,0,0.024444444444444446,10.291111111111112,0)" xlink:href="#aT"/><use transform="matrix(0.024444444444444446,0,0,0.024444444444444446,18.57777777777778,0)" xlink:href="#bq"/><use transform="matrix(0.024444444444444446,0,0,0.024444444444444446,30.702222222222225,0)" xlink:href="#aT"/><use transform="matrix(0.024444444444444446,0,0,0.024444444444444446,38.988888888888894,0)" xlink:href="#aJ"/><use transform="matrix(0.024444444444444446,0,0,0.024444444444444446,52.16444444444445,0)" xlink:href="#aK"/></g><path d="M84 4C-5 8 30-112 23-190h32v120c0 31 7 50 39 49 72-2 45-101 50-169h31l1 190h-30c-1-10 1-25-2-33-11 22-28 36-60 37" id="bv"/><g id="K"><use transform="matrix(0.06790123456790124,0,0,0.06790123456790124,0,0)" xlink:href="#bv"/><use transform="matrix(0.06790123456790124,0,0,0.06790123456790124,13.580246913580249,0)" xlink:href="#ba"/><use transform="matrix(0.06790123456790124,0,0,0.06790123456790124,25.802469135802472,0)" xlink:href="#aH"/><use transform="matrix(0.06790123456790124,0,0,0.06790123456790124,39.38271604938272,0)" xlink:href="#aW"/><use transform="matrix(0.06790123456790124,0,0,0.06790123456790124,47.46296296296297,0)" xlink:href="#bt"/><use transform="matrix(0.06790123456790124,0,0,0.06790123456790124,65.0493827160494,0)" xlink:href="#aY"/><use transform="matrix(0.06790123456790124,0,0,0.06790123456790124,78.62962962962965,0)" xlink:href="#bu"/><use transform="matrix(0.06790123456790124,0,0,0.06790123456790124,98.93209876543212,0)" xlink:href="#aH"/></g><path d="M127-220V0H93v-220H8v-28h204v28h-85" id="bw"/><g id="L"><use transform="matrix(0.06790123456790124,0,0,0.06790123456790124,0,0)" xlink:href="#bv"/><use transform="matrix(0.06790123456790124,0,0,0.06790123456790124,13.580246913580249,0)" xlink:href="#ba"/><use transform="matrix(0.06790123456790124,0,0,0.06790123456790124,25.802469135802472,0)" xlink:href="#aH"/><use transform="matrix(0.06790123456790124,0,0,0.06790123456790124,39.38271604938272,0)" xlink:href="#aW"/><use transform="matrix(0.06790123456790124,0,0,0.06790123456790124,47.46296296296297,0)" xlink:href="#bw"/><use transform="matrix(0.06790123456790124,0,0,0.06790123456790124,60.97530864197532,0)" xlink:href="#be"/><use transform="matrix(0.06790123456790124,0,0,0.06790123456790124,73.19753086419755,0)" xlink:href="#aD"/><use transform="matrix(0.06790123456790124,0,0,0.06790123456790124,86.7777777777778,0)" xlink:href="#aH"/></g><g id="M"><use transform="matrix(0.06790123456790124,0,0,0.06790123456790124,0,0)" xlink:href="#aB"/><use transform="matrix(0.06790123456790124,0,0,0.06790123456790124,13.580246913580249,0)" xlink:href="#aV"/><use transform="matrix(0.06790123456790124,0,0,0.06790123456790124,27.160493827160497,0)" xlink:href="#bj"/></g><g id="O"><use transform="matrix(0.06790123456790124,0,0,0.06790123456790124,0,0)" xlink:href="#aY"/><use transform="matrix(0.06790123456790124,0,0,0.06790123456790124,13.580246913580249,0)" xlink:href="#aB"/><use transform="matrix(0.06790123456790124,0,0,0.06790123456790124,27.160493827160497,0)" xlink:href="#aB"/><use transform="matrix(0.06790123456790124,0,0,0.06790123456790124,40.74074074074075,0)" xlink:href="#aW"/><use transform="matrix(0.06790123456790124,0,0,0.06790123456790124,48.820987654320994,0)" xlink:href="#aH"/><use transform="matrix(0.06790123456790124,0,0,0.06790123456790124,62.40123456790124,0)" xlink:href="#ba"/><use transform="matrix(0.06790123456790124,0,0,0.06790123456790124,74.62345679012347,0)" xlink:href="#ba"/><use transform="matrix(0.06790123456790124,0,0,0.06790123456790124,86.8456790123457,0)" xlink:href="#bb"/><use transform="matrix(0.06790123456790124,0,0,0.06790123456790124,93.63580246913583,0)" xlink:href="#aB"/><use transform="matrix(0.06790123456790124,0,0,0.06790123456790124,107.21604938271608,0)" xlink:href="#ba"/></g><path d="M0 4l72-265h28L28 4H0" id="bx"/><g id="Q"><use transform="matrix(0.06790123456790124,0,0,0.06790123456790124,0,0)" xlink:href="#aG"/><use transform="matrix(0.06790123456790124,0,0,0.06790123456790124,6.790123456790124,0)" xlink:href="#aH"/><use transform="matrix(0.06790123456790124,0,0,0.06790123456790124,20.370370370370374,0)" xlink:href="#aI"/><use transform="matrix(0.06790123456790124,0,0,0.06790123456790124,32.592592592592595,0)" xlink:href="#aG"/><use transform="matrix(0.06790123456790124,0,0,0.06790123456790124,39.38271604938272,0)" xlink:href="#bx"/><use transform="matrix(0.06790123456790124,0,0,0.06790123456790124,46.17283950617285,0)" xlink:href="#bi"/><use transform="matrix(0.06790123456790124,0,0,0.06790123456790124,51.537037037037045,0)" xlink:href="#aA"/><use transform="matrix(0.06790123456790124,0,0,0.06790123456790124,56.90123456790124,0)" xlink:href="#ba"/><use transform="matrix(0.06790123456790124,0,0,0.06790123456790124,69.12345679012347,0)" xlink:href="#aG"/></g><path d="M306-378c-38-49-172-17-221 4l-31-97c53-24 132-39 210-39 122 0 181 55 180 175-1 112-20 242 11 336H349l-21-69h-5c-28 41-74 78-147 76C81 5 23-45 23-138c0-142 140-164 291-160 5-37 4-65-8-80zM157-158c-3 37 24 59 62 59 49 0 79-27 96-55v-65c-71-4-153-3-158 61" id="by"/><path d="M208 14C110 12 74-35 74-138v-252H5v-110h69v-94l130-37v131h122v110H204v192c2 58 2 97 50 97 30 0 44-6 67-16l23 100c-34 16-86 31-136 31" id="bz"/><path d="M68-500h130V0H68v-500zm62-73c-46 0-81-26-81-68s35-70 81-70c45 0 85 29 85 70 0 42-40 68-85 68" id="bA"/><path d="M254 12C182 13 102-2 57-22v-678h130v240h4c26-30 72-53 127-52 135 3 185 99 185 249 0 170-87 274-249 275zm7-110c84 0 108-64 108-161 0-95-30-143-89-143-53 1-78 30-93 72v218c20 10 44 14 74 14" id="bB"/><g id="R"><use transform="matrix(0.024444444444444446,0,0,0.024444444444444446,0,0)" xlink:href="#at"/><use transform="matrix(0.024444444444444446,0,0,0.024444444444444446,13.151111111111112,0)" xlink:href="#au"/><use transform="matrix(0.024444444444444446,0,0,0.024444444444444446,23.46666666666667,0)" xlink:href="#av"/><use transform="matrix(0.024444444444444446,0,0,0.024444444444444446,35.88444444444445,0)" xlink:href="#aw"/><use transform="matrix(0.024444444444444446,0,0,0.024444444444444446,44.464444444444446,0)" xlink:href="#ax"/><use transform="matrix(0.024444444444444446,0,0,0.024444444444444446,53.26444444444445,0)" xlink:href="#by"/><use transform="matrix(0.024444444444444446,0,0,0.024444444444444446,65.3888888888889,0)" xlink:href="#bz"/><use transform="matrix(0.024444444444444446,0,0,0.024444444444444446,73.7488888888889,0)" xlink:href="#bz"/><use transform="matrix(0.024444444444444446,0,0,0.024444444444444446,82.28000000000002,0)" xlink:href="#aw"/><use transform="matrix(0.024444444444444446,0,0,0.024444444444444446,90.86000000000001,0)" xlink:href="#bA"/><use transform="matrix(0.024444444444444446,0,0,0.024444444444444446,97.43555555555557,0)" xlink:href="#bB"/><use transform="matrix(0.024444444444444446,0,0,0.024444444444444446,110.53777777777778,0)" xlink:href="#at"/><use transform="matrix(0.024444444444444446,0,0,0.024444444444444446,123.6888888888889,0)" xlink:href="#bz"/><use transform="matrix(0.024444444444444446,0,0,0.024444444444444446,132.0977777777778,0)" xlink:href="#av"/></g><path d="M247 9C183 10 114-8 77-29v-671h80v249h4c28-36 76-61 136-61 144 0 194 97 194 254C491-91 407 8 247 9zm161-268c-2-100-27-183-125-183-74 0-109 46-126 107v252c24 14 63 22 102 22 105 0 151-78 149-198" id="bC"/><path d="M211-458l-54-101h-4l10 101V0H85v-711h44l335 467 52 96h5l-11-96v-456h78V11h-44" id="bD"/><g id="S"><use transform="matrix(0.024444444444444446,0,0,0.024444444444444446,0,0)" xlink:href="#bq"/><use transform="matrix(0.024444444444444446,0,0,0.024444444444444446,12.124444444444444,0)" xlink:href="#aT"/><use transform="matrix(0.024444444444444446,0,0,0.024444444444444446,20.41111111111111,0)" xlink:href="#aT"/><use transform="matrix(0.024444444444444446,0,0,0.024444444444444446,28.69777777777778,0)" xlink:href="#aM"/><use transform="matrix(0.024444444444444446,0,0,0.024444444444444446,37.00888888888889,0)" xlink:href="#bk"/><use transform="matrix(0.024444444444444446,0,0,0.024444444444444446,43.56,0)" xlink:href="#bC"/><use transform="matrix(0.024444444444444446,0,0,0.024444444444444446,56.760000000000005,0)" xlink:href="#aJ"/><use transform="matrix(0.024444444444444446,0,0,0.024444444444444446,69.93555555555557,0)" xlink:href="#aT"/><use transform="matrix(0.024444444444444446,0,0,0.024444444444444446,77.95333333333333,0)" xlink:href="#aL"/><use transform="matrix(0.024444444444444446,0,0,0.024444444444444446,90.3711111111111,0)" xlink:href="#bD"/><use transform="matrix(0.024444444444444446,0,0,0.024444444444444446,106.82222222222222,0)" xlink:href="#bq"/><use transform="matrix(0.024444444444444446,0,0,0.024444444444444446,118.94666666666667,0)" xlink:href="#bp"/><use transform="matrix(0.024444444444444446,0,0,0.024444444444444446,138.79555555555555,0)" xlink:href="#aL"/></g><path d="M267-219c9 35 15 72 25 106l26-108 169-479h83L305 11h-37L-2-700h91" id="bE"/><g id="T"><use transform="matrix(0.024444444444444446,0,0,0.024444444444444446,0,0)" xlink:href="#bq"/><use transform="matrix(0.024444444444444446,0,0,0.024444444444444446,12.124444444444444,0)" xlink:href="#aT"/><use transform="matrix(0.024444444444444446,0,0,0.024444444444444446,20.41111111111111,0)" xlink:href="#aT"/><use transform="matrix(0.024444444444444446,0,0,0.024444444444444446,28.69777777777778,0)" xlink:href="#aM"/><use transform="matrix(0.024444444444444446,0,0,0.024444444444444446,37.00888888888889,0)" xlink:href="#bk"/><use transform="matrix(0.024444444444444446,0,0,0.024444444444444446,43.56,0)" xlink:href="#bC"/><use transform="matrix(0.024444444444444446,0,0,0.024444444444444446,56.760000000000005,0)" xlink:href="#aJ"/><use transform="matrix(0.024444444444444446,0,0,0.024444444444444446,69.93555555555557,0)" xlink:href="#aT"/><use transform="matrix(0.024444444444444446,0,0,0.024444444444444446,77.95333333333333,0)" xlink:href="#aL"/><use transform="matrix(0.024444444444444446,0,0,0.024444444444444446,90.3711111111111,0)" xlink:href="#bE"/><use transform="matrix(0.024444444444444446,0,0,0.024444444444444446,103.03333333333332,0)" xlink:href="#bq"/><use transform="matrix(0.024444444444444446,0,0,0.024444444444444446,115.15777777777777,0)" xlink:href="#br"/><use transform="matrix(0.024444444444444446,0,0,0.024444444444444446,122.29555555555557,0)" xlink:href="#aJ"/><use transform="matrix(0.024444444444444446,0,0,0.024444444444444446,135.4711111111111,0)" xlink:href="#aL"/></g><g id="U"><use transform="matrix(0.06790123456790124,0,0,0.06790123456790124,0,0)" xlink:href="#bv"/><use transform="matrix(0.06790123456790124,0,0,0.06790123456790124,13.580246913580249,0)" xlink:href="#ba"/><use transform="matrix(0.06790123456790124,0,0,0.06790123456790124,25.802469135802472,0)" xlink:href="#aH"/><use transform="matrix(0.06790123456790124,0,0,0.06790123456790124,39.38271604938272,0)" xlink:href="#aW"/><use transform="matrix(0.06790123456790124,0,0,0.06790123456790124,47.46296296296297,0)" xlink:href="#bb"/><use transform="matrix(0.06790123456790124,0,0,0.06790123456790124,54.253086419753096,0)" xlink:href="#aB"/></g><path d="M-16 92c72 8 85-39 85-108v-484h130V21c7 140-74 212-215 180V92zm148-665c-46 0-81-26-81-68s35-70 81-70c45 0 85 29 85 70 0 42-40 68-85 68" id="bF"/><path d="M547-478c0 191-151 258-350 237V0H60v-693c55-11 127-17 193-17 172 0 294 58 294 232zm-144-2c0-106-104-123-206-107v227c108 15 206-7 206-120" id="bG"/><path d="M344-585c-48-18-132-27-132 43 0 12-2 26-2 42h110v110H210V0H80v-390H11v-110h69c-6-133 36-207 156-208 53 0 98 6 133 19" id="bH"/><path d="M178 14C100 13 61-20 61-100v-600h130v532c1 39 5 67 38 67 22 0 33-3 52-11l14 102c-24 12-77 25-117 24" id="bI"/><g id="W"><use transform="matrix(0.024444444444444446,0,0,0.024444444444444446,0,0)" xlink:href="#bF"/><use transform="matrix(0.024444444444444446,0,0,0.024444444444444446,6.551111111111111,0)" xlink:href="#ay"/><use transform="matrix(0.024444444444444446,0,0,0.024444444444444446,19.677777777777777,0)" xlink:href="#bB"/><use transform="matrix(0.024444444444444446,0,0,0.024444444444444446,32.78,0)" xlink:href="#bG"/><use transform="matrix(0.024444444444444446,0,0,0.024444444444444446,46.05333333333334,0)" xlink:href="#aw"/><use transform="matrix(0.024444444444444446,0,0,0.024444444444444446,54.63333333333333,0)" xlink:href="#ay"/><use transform="matrix(0.024444444444444446,0,0,0.024444444444444446,67.46666666666667,0)" xlink:href="#bH"/><use transform="matrix(0.024444444444444446,0,0,0.024444444444444446,75.31333333333333,0)" xlink:href="#bA"/><use transform="matrix(0.024444444444444446,0,0,0.024444444444444446,81.88888888888889,0)" xlink:href="#bI"/><use transform="matrix(0.024444444444444446,0,0,0.024444444444444446,89.07555555555555,0)" xlink:href="#av"/></g><path d="M9 142c81 3 84-65 84-145v-497h80V27c1 123-40 197-164 183v-68zm122-741c-31 0-55-23-55-53s24-56 55-56 58 26 58 56-28 53-58 53" id="bJ"/><path d="M262 9C206 9 136 6 85 1v-701c55-8 125-8 187-8 221 0 326 133 326 353C598-133 489 9 262 9zm248-364c0-173-76-287-264-279-26 1-55 2-78 5v560c27 3 67 4 96 4 176 0 246-117 246-290" id="bK"/><g id="X"><use transform="matrix(0.024444444444444446,0,0,0.024444444444444446,0,0)" xlink:href="#bJ"/><use transform="matrix(0.024444444444444446,0,0,0.024444444444444446,6.526666666666667,0)" xlink:href="#bo"/><use transform="matrix(0.024444444444444446,0,0,0.024444444444444446,19.628888888888888,0)" xlink:href="#bk"/><use transform="matrix(0.024444444444444446,0,0,0.024444444444444446,26.18,0)" xlink:href="#bm"/><use transform="matrix(0.024444444444444446,0,0,0.024444444444444446,39.55111111111111,0)" xlink:href="#bk"/><use transform="matrix(0.024444444444444446,0,0,0.024444444444444446,46.102222222222224,0)" xlink:href="#bm"/><use transform="matrix(0.024444444444444446,0,0,0.024444444444444446,59.473333333333336,0)" xlink:href="#bn"/><use transform="matrix(0.024444444444444446,0,0,0.024444444444444446,72.60000000000001,0)" xlink:href="#bK"/><use transform="matrix(0.024444444444444446,0,0,0.024444444444444446,88.58666666666667,0)" xlink:href="#bq"/><use transform="matrix(0.024444444444444446,0,0,0.024444444444444446,100.71111111111112,0)" xlink:href="#aT"/><use transform="matrix(0.024444444444444446,0,0,0.024444444444444446,108.72888888888889,0)" xlink:href="#aL"/></g><g id="Y"><use transform="matrix(0.024444444444444446,0,0,0.024444444444444446,0,0)" xlink:href="#aL"/><use transform="matrix(0.024444444444444446,0,0,0.024444444444444446,12.41777777777778,0)" xlink:href="#bm"/><use transform="matrix(0.024444444444444446,0,0,0.024444444444444446,25.78888888888889,0)" xlink:href="#aO"/><use transform="matrix(0.024444444444444446,0,0,0.024444444444444446,38.940000000000005,0)" xlink:href="#bK"/><use transform="matrix(0.024444444444444446,0,0,0.024444444444444446,54.926666666666684,0)" xlink:href="#bq"/><use transform="matrix(0.024444444444444446,0,0,0.024444444444444446,67.05111111111113,0)" xlink:href="#aT"/><use transform="matrix(0.024444444444444446,0,0,0.024444444444444446,75.06888888888889,0)" xlink:href="#aL"/></g><g id="Z"><use transform="matrix(0.06790123456790124,0,0,0.06790123456790124,0,0)" xlink:href="#aY"/><use transform="matrix(0.06790123456790124,0,0,0.06790123456790124,13.580246913580249,0)" xlink:href="#aB"/><use transform="matrix(0.06790123456790124,0,0,0.06790123456790124,27.160493827160497,0)" xlink:href="#aB"/><use transform="matrix(0.06790123456790124,0,0,0.06790123456790124,40.74074074074075,0)" xlink:href="#aW"/><use transform="matrix(0.06790123456790124,0,0,0.06790123456790124,48.820987654320994,0)" xlink:href="#aH"/><use transform="matrix(0.06790123456790124,0,0,0.06790123456790124,62.40123456790124,0)" xlink:href="#ba"/><use transform="matrix(0.06790123456790124,0,0,0.06790123456790124,74.62345679012347,0)" xlink:href="#ba"/><use transform="matrix(0.06790123456790124,0,0,0.06790123456790124,86.8456790123457,0)" xlink:href="#bb"/><use transform="matrix(0.06790123456790124,0,0,0.06790123456790124,93.63580246913583,0)" xlink:href="#aB"/></g><path d="M212-179c-10-28-35-45-73-45-59 0-87 40-87 99 0 60 29 101 89 101 43 0 62-24 78-52l27 14C228-24 195 4 139 4 59 4 22-46 18-125c-6-104 99-153 187-111 19 9 31 26 39 46" id="bL"/><g id="aa"><use transform="matrix(0.06790123456790124,0,0,0.06790123456790124,0,0)" xlink:href="#aA"/><use transform="matrix(0.06790123456790124,0,0,0.06790123456790124,5.364197530864199,0)" xlink:href="#ba"/><use transform="matrix(0.06790123456790124,0,0,0.06790123456790124,17.58641975308642,0)" xlink:href="#bL"/><use transform="matrix(0.06790123456790124,0,0,0.06790123456790124,35.17283950617284,0)" xlink:href="#bv"/><use transform="matrix(0.06790123456790124,0,0,0.06790123456790124,48.75308641975309,0)" xlink:href="#aW"/><use transform="matrix(0.06790123456790124,0,0,0.06790123456790124,56.833333333333336,0)" xlink:href="#aW"/><use transform="matrix(0.06790123456790124,0,0,0.06790123456790124,64.91358024691358,0)" xlink:href="#aH"/><use transform="matrix(0.06790123456790124,0,0,0.06790123456790124,78.49382716049384,0)" xlink:href="#aZ"/><use transform="matrix(0.06790123456790124,0,0,0.06790123456790124,92.07407407407409,0)" xlink:href="#aG"/><use transform="matrix(0.06790123456790124,0,0,0.06790123456790124,98.86419753086422,0)" xlink:href="#bf"/><use transform="matrix(0.06790123456790124,0,0,0.06790123456790124,111.08641975308645,0)" xlink:href="#aV"/><use transform="matrix(0.06790123456790124,0,0,0.06790123456790124,124.6666666666667,0)" xlink:href="#bj"/></g><g id="ab"><use transform="matrix(0.06790123456790124,0,0,0.06790123456790124,0,0)" xlink:href="#bj"/><use transform="matrix(0.06790123456790124,0,0,0.06790123456790124,13.580246913580249,0)" xlink:href="#aV"/><use transform="matrix(0.06790123456790124,0,0,0.06790123456790124,27.160493827160497,0)" xlink:href="#aV"/><use transform="matrix(0.06790123456790124,0,0,0.06790123456790124,40.74074074074075,0)" xlink:href="#bi"/><use transform="matrix(0.06790123456790124,0,0,0.06790123456790124,46.104938271604944,0)" xlink:href="#aH"/><use transform="matrix(0.06790123456790124,0,0,0.06790123456790124,59.6851851851852,0)" xlink:href="#aY"/><use transform="matrix(0.06790123456790124,0,0,0.06790123456790124,73.26543209876544,0)" xlink:href="#aZ"/></g><g id="ac"><use transform="matrix(0.06790123456790124,0,0,0.06790123456790124,0,0)" xlink:href="#bv"/><use transform="matrix(0.06790123456790124,0,0,0.06790123456790124,13.580246913580249,0)" xlink:href="#ba"/><use transform="matrix(0.06790123456790124,0,0,0.06790123456790124,25.802469135802472,0)" xlink:href="#aH"/><use transform="matrix(0.06790123456790124,0,0,0.06790123456790124,39.38271604938272,0)" xlink:href="#aW"/><use transform="matrix(0.06790123456790124,0,0,0.06790123456790124,47.46296296296297,0)" xlink:href="#bb"/><use transform="matrix(0.06790123456790124,0,0,0.06790123456790124,54.253086419753096,0)" xlink:href="#aB"/></g><path d="M261-512c41 0 62 4 91 15v-203h130v524c0 66 0 116 10 177h-93l-18-65h-4c-25 45-77 80-146 78C90 11 33-84 33-242c0-161 72-270 228-270zm-94 274c0 76 22 141 94 142 54 0 79-28 91-72v-212c-20-15-39-23-75-22-89 3-110 60-110 164" id="bM"/><g id="ae"><use transform="matrix(0.024444444444444446,0,0,0.024444444444444446,0,0)" xlink:href="#by"/><use transform="matrix(0.024444444444444446,0,0,0.024444444444444446,12.124444444444444,0)" xlink:href="#bM"/><use transform="matrix(0.024444444444444446,0,0,0.024444444444444446,25.3,0)" xlink:href="#bM"/><use transform="matrix(0.024444444444444446,0,0,0.024444444444444446,38.47555555555556,0)" xlink:href="#aw"/><use transform="matrix(0.024444444444444446,0,0,0.024444444444444446,47.05555555555556,0)" xlink:href="#av"/><use transform="matrix(0.024444444444444446,0,0,0.024444444444444446,59.473333333333336,0)" xlink:href="#au"/><use transform="matrix(0.024444444444444446,0,0,0.024444444444444446,69.78888888888889,0)" xlink:href="#au"/></g><path d="M281-58c46 1 86-17 111-36l26 61c-37 28-94 45-157 45C104 12 53-93 49-250c-5-188 108-294 299-254 22 5 42 12 60 21l-23 69c-29-16-66-28-111-28-95 0-142 64-142 192 0 110 39 189 149 192" id="bN"/><path d="M104-500c49 140 107 271 148 420h5c31-148 79-280 119-420h81C396-319 339-134 276 44c-20 55-46 106-82 140-28 26-82 25-117 11l14-69c34 12 54 2 79-24 17-20 32-54 43-102L12-500h92" id="bO"/><g id="af"><use transform="matrix(0.024444444444444446,0,0,0.024444444444444446,0,0)" xlink:href="#bN"/><use transform="matrix(0.024444444444444446,0,0,0.024444444444444446,11.024444444444445,0)" xlink:href="#bk"/><use transform="matrix(0.024444444444444446,0,0,0.024444444444444446,17.575555555555557,0)" xlink:href="#aT"/><use transform="matrix(0.024444444444444446,0,0,0.024444444444444446,25.862222222222222,0)" xlink:href="#bO"/></g><g id="ag"><use transform="matrix(0.024444444444444446,0,0,0.024444444444444446,0,0)" xlink:href="#aK"/><use transform="matrix(0.024444444444444446,0,0,0.024444444444444446,10.291111111111112,0)" xlink:href="#aT"/><use transform="matrix(0.024444444444444446,0,0,0.024444444444444446,18.57777777777778,0)" xlink:href="#bq"/><use transform="matrix(0.024444444444444446,0,0,0.024444444444444446,30.702222222222225,0)" xlink:href="#aT"/><use transform="matrix(0.024444444444444446,0,0,0.024444444444444446,38.720000000000006,0)" xlink:href="#aL"/></g><path fill="#b2b2b2" d="M24-248c120-7 223 5 221 122C244-46 201 0 124 0H24v-248zM76-40c74 7 117-18 117-86 0-67-45-88-117-82v168" id="bP"/><path fill="#b2b2b2" d="M133-34C117-15 103 5 69 4 32 3 11-16 11-54c-1-60 55-63 116-61 1-26-3-47-28-47-18 1-26 9-28 27l-52-2c7-38 36-58 82-57s74 22 75 68l1 82c-1 14 12 18 25 15v27c-30 8-71 5-69-32zm-48 3c29 0 43-24 42-57-32 0-66-3-65 30 0 17 8 27 23 27" id="bQ"/><path fill="#b2b2b2" d="M115-3C79 11 28 4 28-45v-112H4v-33h27l15-45h31v45h36v33H77v99c-1 23 16 31 38 25v30" id="bR"/><path fill="#b2b2b2" d="M135-194c52 0 70 43 70 98 0 56-19 99-73 100-30 1-46-15-58-35L72 0H24l1-261h50v104c11-23 29-37 60-37zM114-30c31 0 40-27 40-66 0-37-7-63-39-63s-41 28-41 65c0 36 8 64 40 64" id="bS"/><path fill="#b2b2b2" d="M137-138c1-29-70-34-71-4 15 46 118 7 119 86 1 83-164 76-172 9l43-7c4 19 20 25 44 25 33 8 57-30 24-41C81-84 22-81 20-136c-2-80 154-74 161-7" id="bT"/><path fill="#b2b2b2" d="M185-48c-13 30-37 53-82 52C43 2 14-33 14-96s30-98 90-98c62 0 83 45 84 108H66c0 31 8 55 39 56 18 0 30-7 34-22zm-45-69c5-46-57-63-70-21-2 6-4 13-4 21h74" id="bU"/><g id="ah"><use transform="matrix(0.07407407407407408,0,0,0.07407407407407408,0,0)" xlink:href="#bP"/><use transform="matrix(0.07407407407407408,0,0,0.07407407407407408,19.185185185185187,0)" xlink:href="#bQ"/><use transform="matrix(0.07407407407407408,0,0,0.07407407407407408,34,0)" xlink:href="#bR"/><use transform="matrix(0.07407407407407408,0,0,0.07407407407407408,42.814814814814824,0)" xlink:href="#bQ"/><use transform="matrix(0.07407407407407408,0,0,0.07407407407407408,57.62962962962964,0)" xlink:href="#bS"/><use transform="matrix(0.07407407407407408,0,0,0.07407407407407408,73.85185185185186,0)" xlink:href="#bQ"/><use transform="matrix(0.07407407407407408,0,0,0.07407407407407408,88.66666666666667,0)" xlink:href="#bT"/><use transform="matrix(0.07407407407407408,0,0,0.07407407407407408,103.4814814814815,0)" xlink:href="#bU"/></g><path fill="#b2b2b2" d="M24 0v-248h195v40H76v63h132v40H76v65h150V0H24" id="bV"/><path fill="#b2b2b2" d="M240-174c0 40-23 61-54 70L253 0h-59l-57-94H76V0H24v-248c93 4 217-23 216 74zM76-134c48-2 112 12 112-38 0-48-66-32-112-35v73" id="bW"/><g id="ai"><use transform="matrix(0.07407407407407408,0,0,0.07407407407407408,0,0)" xlink:href="#bV"/><use transform="matrix(0.07407407407407408,0,0,0.07407407407407408,17.77777777777778,0)" xlink:href="#bW"/></g><path fill="#b2b2b2" d="M25-224v-37h50v37H25zM25 0v-190h50V0H25" id="bX"/><path fill="#b2b2b2" d="M195-6C206 82 75 100 31 46c-4-6-6-13-8-21l49-6c3 16 16 24 34 25 40 0 42-37 40-79-11 22-30 35-61 35-53 0-70-43-70-97 0-56 18-96 73-97 30 0 46 14 59 34l2-30h47zm-90-29c32 0 41-27 41-63 0-35-9-62-40-62-32 0-39 29-40 63 0 36 9 62 39 62" id="bY"/><path fill="#b2b2b2" d="M135-150c-39-12-60 13-60 57V0H25l-1-190h47c2 13-1 29 3 40 6-28 27-53 61-41v41" id="bZ"/><path fill="#b2b2b2" d="M220-157c-53 9-28 100-34 157h-49v-107c1-27-5-49-29-50C55-147 81-57 75 0H25l-1-190h47c2 12-1 28 3 38 10-53 101-56 108 0 13-22 24-43 59-42 82 1 51 116 57 194h-49v-107c-1-25-5-48-29-50" id="ca"/><g id="aj"><use transform="matrix(0.07407407407407408,0,0,0.07407407407407408,0,0)" xlink:href="#bP"/><use transform="matrix(0.07407407407407408,0,0,0.07407407407407408,19.185185185185187,0)" xlink:href="#bX"/><use transform="matrix(0.07407407407407408,0,0,0.07407407407407408,26.592592592592595,0)" xlink:href="#bQ"/><use transform="matrix(0.07407407407407408,0,0,0.07407407407407408,41.40740740740741,0)" xlink:href="#bY"/><use transform="matrix(0.07407407407407408,0,0,0.07407407407407408,57.62962962962964,0)" xlink:href="#bZ"/><use transform="matrix(0.07407407407407408,0,0,0.07407407407407408,68,0)" xlink:href="#bQ"/><use transform="matrix(0.07407407407407408,0,0,0.07407407407407408,82.81481481481481,0)" xlink:href="#ca"/></g><path fill="#b2b2b2" d="M144 0l-44-69L55 0H2l70-98-66-92h53l41 62 40-62h54l-67 91 71 99h-54" id="cb"/><path fill="#b2b2b2" d="M135-194c53 0 70 44 70 98 0 56-19 98-73 100-31 1-45-17-59-34 3 33 2 69 2 105H25l-1-265h48c2 10 0 23 3 31 11-24 29-35 60-35zM114-30c33 0 39-31 40-66 0-38-9-64-40-64-56 0-55 130 0 130" id="cc"/><path fill="#b2b2b2" d="M25 0v-261h50V0H25" id="cd"/><g id="ak"><use transform="matrix(0.07407407407407408,0,0,0.07407407407407408,0,0)" xlink:href="#bV"/><use transform="matrix(0.07407407407407408,0,0,0.07407407407407408,17.77777777777778,0)" xlink:href="#cb"/><use transform="matrix(0.07407407407407408,0,0,0.07407407407407408,32.592592592592595,0)" xlink:href="#bQ"/><use transform="matrix(0.07407407407407408,0,0,0.07407407407407408,47.40740740740741,0)" xlink:href="#ca"/><use transform="matrix(0.07407407407407408,0,0,0.07407407407407408,71.11111111111111,0)" xlink:href="#cc"/><use transform="matrix(0.07407407407407408,0,0,0.07407407407407408,87.33333333333334,0)" xlink:href="#cd"/><use transform="matrix(0.07407407407407408,0,0,0.07407407407407408,94.74074074074075,0)" xlink:href="#bU"/></g><path fill="#b2b2b2" d="M240 0l2-218c-23 76-54 145-80 218h-23L58-218 59 0H30v-248h44l77 211c21-75 51-140 76-211h43V0h-30" id="ce"/><path fill="#b2b2b2" d="M141-36C126-15 110 5 73 4 37 3 15-17 15-53c-1-64 63-63 125-63 3-35-9-54-41-54-24 1-41 7-42 31l-33-3c5-37 33-52 76-52 45 0 72 20 72 64v82c-1 20 7 32 28 27v20c-31 9-61-2-59-35zM48-53c0 20 12 33 32 33 41-3 63-29 60-74-43 2-92-5-92 41" id="cf"/><path fill="#b2b2b2" d="M117-194c89-4 53 116 60 194h-32v-121c0-31-8-49-39-48C34-167 62-67 57 0H25l-1-190h30c1 10-1 24 2 32 11-22 29-35 61-36" id="cg"/><path fill="#b2b2b2" d="M9 0v-24l116-142H16v-24h144v24L44-24h123V0H9" id="ch"/><path fill="#b2b2b2" d="M114-163C36-179 61-72 57 0H25l-1-190h30c1 12-1 29 2 39 6-27 23-49 58-41v29" id="ci"/><path fill="#b2b2b2" d="M84 4C-5 8 30-112 23-190h32v120c0 31 7 50 39 49 72-2 45-101 50-169h31l1 190h-30c-1-10 1-25-2-33-11 22-28 36-60 37" id="cj"/><path fill="#b2b2b2" d="M24 0v-261h32V0H24" id="ck"/><g id="al"><use transform="matrix(0.04320987654320988,0,0,0.04320987654320988,0,0)" xlink:href="#ce"/><use transform="matrix(0.04320987654320988,0,0,0.04320987654320988,12.919753086419755,0)" xlink:href="#cf"/><use transform="matrix(0.04320987654320988,0,0,0.04320987654320988,21.56172839506173,0)" xlink:href="#cg"/><use transform="matrix(0.04320987654320988,0,0,0.04320987654320988,30.203703703703713,0)" xlink:href="#ch"/><use transform="matrix(0.04320987654320988,0,0,0.04320987654320988,37.98148148148149,0)" xlink:href="#cf"/><use transform="matrix(0.04320987654320988,0,0,0.04320987654320988,46.62345679012346,0)" xlink:href="#ci"/><use transform="matrix(0.04320987654320988,0,0,0.04320987654320988,51.76543209876544,0)" xlink:href="#cj"/><use transform="matrix(0.04320987654320988,0,0,0.04320987654320988,60.40740740740741,0)" xlink:href="#ck"/></g><path fill="#b2b2b2" d="M197 0v-115H63V0H30v-248h33v105h134v-105h34V0h-34" id="cl"/><path fill="#b2b2b2" d="M145-31C134-9 116 4 85 4 32 4 16-35 15-94c0-59 17-99 70-100 32-1 48 14 60 33 0-11-1-24 2-32h30l-1 268h-32zM93-21c41 0 51-33 51-76s-8-73-50-73c-40 0-46 35-46 75s5 74 45 74" id="cm"/><path fill="#b2b2b2" d="M100-194c63 0 86 42 84 106H49c0 40 14 67 53 68 26 1 43-12 49-29l28 8c-11 28-37 45-77 45C44 4 14-33 15-96c1-61 26-98 85-98zm52 81c6-60-76-77-97-28-3 7-6 17-6 28h103" id="cn"/><g id="am"><use transform="matrix(0.04320987654320988,0,0,0.04320987654320988,0,0)" xlink:href="#cl"/><use transform="matrix(0.04320987654320988,0,0,0.04320987654320988,11.19135802469136,0)" xlink:href="#cf"/><use transform="matrix(0.04320987654320988,0,0,0.04320987654320988,19.833333333333336,0)" xlink:href="#cm"/><use transform="matrix(0.04320987654320988,0,0,0.04320987654320988,28.47530864197531,0)" xlink:href="#cj"/><use transform="matrix(0.04320987654320988,0,0,0.04320987654320988,37.117283950617285,0)" xlink:href="#cn"/></g><path fill="#b2b2b2" d="M32 76v-337h29V76H32" id="co"/><use transform="matrix(0.04320987654320988,0,0,0.04320987654320988,0,0)" xlink:href="#co" id="an"/><path fill="#b2b2b2" d="M153-248C145-148 188 4 80 4 36 3 13-21 6-62l32-5c4 25 16 42 43 43 27 0 39-20 39-49v-147H72v-28h81" id="cp"/><g id="ao"><use transform="matrix(0.04320987654320988,0,0,0.04320987654320988,0,0)" xlink:href="#cp"/><use transform="matrix(0.04320987654320988,0,0,0.04320987654320988,7.777777777777779,0)" xlink:href="#cj"/><use transform="matrix(0.04320987654320988,0,0,0.04320987654320988,16.419753086419753,0)" xlink:href="#cg"/><use transform="matrix(0.04320987654320988,0,0,0.04320987654320988,25.061728395061728,0)" xlink:href="#cn"/></g><path fill="#b2b2b2" d="M27 0v-27h64v-190l-56 39v-29l58-41h29v221h61V0H27" id="cq"/><path fill="#b2b2b2" d="M68-38c1 34 0 65-14 84H32c9-13 17-26 17-46H33v-38h35" id="cr"/><g id="ap"><use transform="matrix(0.04320987654320988,0,0,0.04320987654320988,0,0)" xlink:href="#cq"/><use transform="matrix(0.04320987654320988,0,0,0.04320987654320988,7.475308641975309,0)" xlink:href="#cq"/><use transform="matrix(0.04320987654320988,0,0,0.04320987654320988,16.117283950617285,0)" xlink:href="#cr"/></g><path fill="#b2b2b2" d="M101-251c82-7 93 87 43 132L82-64C71-53 59-42 53-27h129V0H18c2-99 128-94 128-182 0-28-16-43-45-43s-46 15-49 41l-32-3c6-41 34-60 81-64" id="cs"/><path fill="#b2b2b2" d="M101-251c68 0 85 55 85 127S166 4 100 4C33 4 14-52 14-124c0-73 17-127 87-127zm-1 229c47 0 54-49 54-102s-4-102-53-102c-51 0-55 48-55 102 0 53 5 102 54 102" id="ct"/><path fill="#b2b2b2" d="M99-251c64 0 84 50 84 122C183-37 130 33 47-8c-14-7-20-23-25-40l30-5c6 39 69 39 84 7 9-19 16-44 16-74-10 22-31 35-62 35-49 0-73-33-73-83 0-54 28-83 82-83zm-1 141c31-1 51-18 51-49 0-36-14-67-51-67-34 0-49 23-49 58 0 34 15 58 49 58" id="cu"/><g id="aq"><use transform="matrix(0.04320987654320988,0,0,0.04320987654320988,0,0)" xlink:href="#cs"/><use transform="matrix(0.04320987654320988,0,0,0.04320987654320988,8.641975308641976,0)" xlink:href="#ct"/><use transform="matrix(0.04320987654320988,0,0,0.04320987654320988,17.283950617283953,0)" xlink:href="#cq"/><use transform="matrix(0.04320987654320988,0,0,0.04320987654320988,25.925925925925927,0)" xlink:href="#cu"/></g></defs></g></svg>